<svg id="_x3C_Layer_x3E_" enable-background="new 0 0 32 32" height="32" viewBox="0 0 32 32" width="32" xmlns="http://www.w3.org/2000/svg"><g id="laptop_x2C__AI_x2C__Artificial_Intelligence_x2C__assistant_1_"><g id="laptop_x2C__Nft_x2C__blockchain_x2C__crypto_x2C__non-fungible_token_1_"><g id="XMLID_2966_"><path id="XMLID_2525_" d="m15 14h2c.3 0 .5.2.4.5-.2.6-.8 1-1.4 1s-1.2-.4-1.4-1c-.1-.3.1-.5.4-.5z" fill="#263238"/></g></g><g id="XMLID_4248_"><g id="chat_bot_x2C__chatbot_x2C__assistant_12_"><path id="XMLID_2526_" d="m16.5 6.5v2h3c1.1 0 2 .9 2 2v5c0 1.1-.9 2-2 2h-7c-1.1 0-2-.9-2-2v-5c0-1.1.9-2 2-2h2" fill="none" stroke="#263238" stroke-linecap="round" stroke-linejoin="round" stroke-miterlimit="10"/><g id="gaming_technology_x2C__joystick_x2C__Nft_x2C__blockchain_2_"><g id="XMLID_2528_" fill="none" stroke="#263238" stroke-linecap="round" stroke-miterlimit="10"><path id="XMLID_2570_" d="m27.5 21.5v-17c0-.6-.4-1-1-1h-21c-.6 0-1 .4-1 1v17" stroke-linejoin="round"/><g id="XMLID_2532_"><path id="XMLID_2894_" d="m6.5 24.5v.1"/><path id="XMLID_2893_" d="m5.5 23.4v.1"/><path id="XMLID_2892_" d="m8.5 24.5v.1"/><path id="XMLID_2891_" d="m7.5 23.4v.1"/><path id="XMLID_2890_" d="m10.5 24.5v.1"/><path id="XMLID_2889_" d="m9.5 23.4v.1"/><path id="XMLID_2888_" d="m12.5 24.5v.1"/><path id="XMLID_2887_" d="m11.5 23.4v.1"/><path id="XMLID_2886_" d="m14.5 24.5v.1"/><path id="XMLID_2885_" d="m13.5 23.4v.1"/><path id="XMLID_2884_" d="m16.5 24.5v.1"/><path id="XMLID_2883_" d="m15.5 23.4v.1"/><path id="XMLID_2880_" d="m18.5 24.5v.1"/><path id="XMLID_2879_" d="m17.5 23.4v.1"/><path id="XMLID_2878_" d="m20.5 24.5v.1"/><path id="XMLID_2877_" d="m19.5 23.4v.1"/><path id="XMLID_2876_" d="m22.5 24.5v.1"/><path id="XMLID_2875_" d="m21.5 23.4v.1"/><path id="XMLID_2554_" d="m24.5 24.5v.1"/><path id="XMLID_2534_" d="m23.5 23.4v.1"/><path id="XMLID_2533_" d="m25.5 23.4v.1"/></g><g stroke-linejoin="round"><path id="XMLID_2531_" d="m4.5 21.5h23l3 5"/><path id="XMLID_2530_" d="m1.5 26.5 3-5"/><path id="XMLID_2529_" d="m19.5 26.5h11c0 1.1-.9 2-2 2h-25c-1.1 0-2-.9-2-2h11"/></g></g></g><g fill="#263238" stroke="#263238" stroke-miterlimit="10"><circle id="XMLID_2524_" cx="18.5" cy="12.5" r=".3"/><circle id="XMLID_2523_" cx="13.5" cy="12.5" r=".3"/></g></g></g></g></svg>