<svg id="_x3C_Layer_x3E_" enable-background="new 0 0 32 32" height="32" viewBox="0 0 32 32" width="32" xmlns="http://www.w3.org/2000/svg"><g id="laptop_x2C__AI_x2C__Artificial_Intelligence_x2C__assistant"><g id="XMLID_4143_"><g id="XMLID_4198_"><path d="m27.5 21.5v-17c0-.55-.45-1-1-1h-21c-.55 0-1 .45-1 1v17z" fill="#65c7ea"/></g><g id="XMLID_4197_"><path d="m6 5h20v15h-20z" fill="#fff"/></g><g id="XMLID_4196_"><path d="m19.5 26.5h11c0 1.1-.9 2-2 2h-25c-1.1 0-2-.9-2-2h11z" fill="#65c7ea"/></g><g id="XMLID_4195_"><path d="m1.5 26.5 3-5h23l3 5z" fill="#9fe6ff"/></g><g id="XMLID_4194_"><path d="m26.38 25h-20.76c-.74 0-1.23-.78-.89-1.45.16-.34.51-.55.89-.55h20.76c.38 0 .73.21.89.55.34.67-.14 1.45-.89 1.45z" fill="#80d8ff"/></g><g id="XMLID_2896_"><path d="m19.5 8.5h-7c-1.1 0-2 .9-2 2v5c0 1.11.9 2 2 2h3.5 2.5 1c1.1 0 2-.89 2-2v-5c0-1.1-.9-2-2-2z" fill="#55fb9b"/></g><g id="XMLID_2942_"><path d="m15 14h2c.28 0 .51.23.42.49-.2.59-.76 1.01-1.42 1.01s-1.21-.42-1.42-1.01c-.09-.26.14-.49.42-.49z" fill="#455a64"/></g></g><g id="gaming_technology_x2C__joystick_x2C__Nft_x2C__blockchain_1_"><g id="gaming_technology_x2C__joystick_x2C__gear_x2C__cogwheel_2_"><g id="XMLID_3818_"><g id="XMLID_4200_"><path d="m28 16.01h-1.2c-.13 0-.26-.05-.35-.15l-.85-.85h-2.1c-.28 0-.5-.22-.5-.5s.22-.5.5-.5h2.3c.13 0 .26.05.35.15l.85.85h1c.28 0 .5.22.5.5s-.22.5-.5.5z" fill="#455a64"/></g><g id="XMLID_4199_"><path d="m29 13.01h-5.5c-.28 0-.5-.22-.5-.5s.22-.5.5-.5h5.5c.28 0 .5.22.5.5s-.22.5-.5.5z" fill="#455a64"/></g><g id="XMLID_4189_"><path d="m30.5 13.01c-.28 0-.55-.22-.55-.5s.17-.5.45-.5h.1c.28 0 .5.22.5.5s-.22.5-.5.5z" fill="#455a64"/></g><g id="XMLID_4186_"><path d="m29.5 16.01c-.28 0-.55-.22-.55-.5s.17-.5.45-.5h.1c.28 0 .5.22.5.5s-.22.5-.5.5z" fill="#455a64"/></g><g id="XMLID_4185_"><path d="m29.5 10.01c-.28 0-.55-.22-.55-.5s.17-.5.45-.5h.1c.28 0 .5.22.5.5s-.22.5-.5.5z" fill="#455a64"/></g><g id="XMLID_4184_"><path d="m25.8 11.01h-2.3c-.28 0-.5-.22-.5-.5s.22-.5.5-.5h2.09l.85-.85c.09-.09.22-.15.35-.15h1.21c.28 0 .5.22.5.5s-.22.5-.5.5h-.99l-.85.85c-.1.1-.23.15-.36.15z" fill="#455a64"/></g><g id="XMLID_4174_"><path d="m5.2 16.01h-1.2c-.28 0-.5-.22-.5-.5s.22-.5.5-.5h.99l.85-.85c.09-.09.22-.15.35-.15h2.3c.28 0 .5.22.5.5s-.22.5-.5.5h-2.08l-.85.85c-.1.1-.23.15-.36.15z" fill="#455a64"/></g><g id="XMLID_4168_"><path d="m8.5 13.01h-5.5c-.28 0-.5-.22-.5-.5s.22-.5.5-.5h5.5c.28 0 .5.22.5.5s-.22.5-.5.5z" fill="#455a64"/></g><g id="XMLID_4144_"><path d="m1.6 13.01h-.1c-.28 0-.5-.22-.5-.5s.22-.5.5-.5.55.22.55.5-.17.5-.45.5z" fill="#455a64"/></g><g id="XMLID_3821_"><path d="m2.6 16.01h-.1c-.28 0-.5-.22-.5-.5s.22-.5.5-.5.55.22.55.5-.17.5-.45.5z" fill="#455a64"/></g><g id="XMLID_3820_"><path d="m2.6 10.01h-.1c-.28 0-.5-.22-.5-.5s.22-.5.5-.5.55.22.55.5-.17.5-.45.5z" fill="#455a64"/></g><g id="XMLID_3819_"><path d="m8.5 11.01h-2.3c-.13 0-.26-.05-.35-.15l-.85-.85h-1c-.28 0-.5-.22-.5-.5s.22-.5.5-.5h1.2c.13 0 .26.05.35.15l.85.85h2.1c.28 0 .5.22.5.5s-.22.5-.5.5z" fill="#455a64"/></g></g></g><g id="XMLID_3797_"><g id="XMLID_4202_"><path d="m4.5 22c-.28 0-.5-.22-.5-.5v-4c0-.28.22-.5.5-.5s.5.22.5.5v4c0 .28-.22.5-.5.5z" fill="#455a64"/></g><g id="XMLID_4142_"><path d="m27.5 22c-.28 0-.5-.22-.5-.5v-4c0-.28.22-.5.5-.5s.5.22.5.5v4c0 .28-.22.5-.5.5z" fill="#455a64"/></g><g id="XMLID_4141_"><path d="m27.5 8c-.28 0-.5-.22-.5-.5v-3c0-.28-.22-.5-.5-.5h-21c-.28 0-.5.22-.5.5v3c0 .28-.22.5-.5.5s-.5-.22-.5-.5v-3c0-.83.67-1.5 1.5-1.5h21c.83 0 1.5.67 1.5 1.5v3c0 .28-.22.5-.5.5z" fill="#455a64"/></g><g id="XMLID_3827_"><g id="XMLID_4140_"><path d="m6.5 25.1c-.28 0-.5-.22-.5-.5s.22-.55.5-.55.5.17.5.45v.1c0 .28-.22.5-.5.5z" fill="#455a64"/></g><g id="XMLID_4139_"><path d="m5.5 24c-.28 0-.5-.22-.5-.5s.22-.55.5-.55.5.17.5.45v.1c0 .28-.22.5-.5.5z" fill="#455a64"/></g><g id="XMLID_4138_"><path d="m8.5 25.1c-.28 0-.5-.22-.5-.5s.22-.55.5-.55.5.17.5.45v.1c0 .28-.22.5-.5.5z" fill="#455a64"/></g><g id="XMLID_4137_"><path d="m7.5 24c-.28 0-.5-.22-.5-.5s.22-.55.5-.55.5.17.5.45v.1c0 .28-.22.5-.5.5z" fill="#455a64"/></g><g id="XMLID_4136_"><path d="m10.5 25.1c-.28 0-.5-.22-.5-.5s.22-.55.5-.55.5.17.5.45v.1c0 .28-.22.5-.5.5z" fill="#455a64"/></g><g id="XMLID_4135_"><path d="m9.5 24c-.28 0-.5-.22-.5-.5s.22-.55.5-.55.5.17.5.45v.1c0 .28-.22.5-.5.5z" fill="#455a64"/></g><g id="XMLID_4134_"><path d="m12.5 25.1c-.28 0-.5-.22-.5-.5s.22-.55.5-.55.5.17.5.45v.1c0 .28-.22.5-.5.5z" fill="#455a64"/></g><g id="XMLID_4133_"><path d="m11.5 24c-.28 0-.5-.22-.5-.5s.22-.55.5-.55.5.17.5.45v.1c0 .28-.22.5-.5.5z" fill="#455a64"/></g><g id="XMLID_4132_"><path d="m14.5 25.1c-.28 0-.5-.22-.5-.5s.22-.55.5-.55.5.17.5.45v.1c0 .28-.22.5-.5.5z" fill="#455a64"/></g><g id="XMLID_4108_"><path d="m13.5 24c-.28 0-.5-.22-.5-.5s.22-.55.5-.55.5.17.5.45v.1c0 .28-.22.5-.5.5z" fill="#455a64"/></g><g id="XMLID_4107_"><path d="m16.5 25.1c-.28 0-.5-.22-.5-.5s.22-.55.5-.55.5.17.5.45v.1c0 .28-.22.5-.5.5z" fill="#455a64"/></g><g id="XMLID_4084_"><path d="m15.5 24c-.28 0-.5-.22-.5-.5s.22-.55.5-.55.5.17.5.45v.1c0 .28-.22.5-.5.5z" fill="#455a64"/></g><g id="XMLID_4059_"><path d="m18.5 25.1c-.28 0-.5-.22-.5-.5s.22-.55.5-.55.5.17.5.45v.1c0 .28-.22.5-.5.5z" fill="#455a64"/></g><g id="XMLID_4058_"><path d="m17.5 24c-.28 0-.5-.22-.5-.5s.22-.55.5-.55.5.17.5.45v.1c0 .28-.22.5-.5.5z" fill="#455a64"/></g><g id="XMLID_4042_"><path d="m20.5 25.1c-.28 0-.5-.22-.5-.5s.22-.55.5-.55.5.17.5.45v.1c0 .28-.22.5-.5.5z" fill="#455a64"/></g><g id="XMLID_4041_"><path d="m19.5 24c-.28 0-.5-.22-.5-.5s.22-.55.5-.55.5.17.5.45v.1c0 .28-.22.5-.5.5z" fill="#455a64"/></g><g id="XMLID_4038_"><path d="m22.5 25.1c-.28 0-.5-.22-.5-.5s.22-.55.5-.55.5.17.5.45v.1c0 .28-.22.5-.5.5z" fill="#455a64"/></g><g id="XMLID_4022_"><path d="m21.5 24c-.28 0-.5-.22-.5-.5s.22-.55.5-.55.5.17.5.45v.1c0 .28-.22.5-.5.5z" fill="#455a64"/></g><g id="XMLID_4021_"><path d="m24.5 25.1c-.28 0-.5-.22-.5-.5s.22-.55.5-.55.5.17.5.45v.1c0 .28-.22.5-.5.5z" fill="#455a64"/></g><g id="XMLID_3952_"><path d="m23.5 24c-.28 0-.5-.22-.5-.5s.22-.55.5-.55.5.17.5.45v.1c0 .28-.22.5-.5.5z" fill="#455a64"/></g><g id="XMLID_3951_"><path d="m25.5 24c-.28 0-.5-.22-.5-.5s.22-.55.5-.55.5.17.5.45v.1c0 .28-.22.5-.5.5z" fill="#455a64"/></g></g><g id="XMLID_3826_"><path d="m30.5 27c-.17 0-.33-.09-.43-.24l-2.85-4.76h-22.72c-.28 0-.5-.22-.5-.5s.22-.5.5-.5h23c.18 0 .34.09.43.24l3 5c.14.24.07.54-.17.69-.08.05-.17.07-.26.07z" fill="#455a64"/></g><g id="XMLID_3824_"><path d="m1.5 27c-.09 0-.18-.02-.26-.07-.24-.14-.31-.45-.17-.69l3-5c.14-.24.45-.31.69-.17s.31.45.17.69l-3 5c-.1.15-.26.24-.43.24z" fill="#455a64"/></g><g id="XMLID_3822_"><path d="m28.5 29h-25c-1.38 0-2.5-1.12-2.5-2.5 0-.28.22-.5.5-.5h11c.28 0 .5.22.5.5s-.22.5-.5.5h-10.41c.21.58.76 1 1.41 1h25c.65 0 1.21-.42 1.41-1h-10.41c-.28 0-.5-.22-.5-.5s.22-.5.5-.5h11c.28 0 .5.22.5.5 0 1.38-1.12 2.5-2.5 2.5z" fill="#455a64"/></g></g><g id="chat_bot_x2C__chatbot_x2C__assistant_11_"><g id="XMLID_2943_"><path d="m19.5 18h-7c-1.38 0-2.5-1.12-2.5-2.5v-5c0-1.38 1.12-2.5 2.5-2.5h2c.28 0 .5.22.5.5s-.22.5-.5.5h-2c-.83 0-1.5.67-1.5 1.5v5c0 .83.67 1.5 1.5 1.5h7c.83 0 1.5-.67 1.5-1.5v-5c0-.83-.67-1.5-1.5-1.5h-3c-.28 0-.5-.22-.5-.5v-2c0-.28.22-.5.5-.5s.5.22.5.5v1.5h2.5c1.38 0 2.5 1.12 2.5 2.5v5c0 1.38-1.12 2.5-2.5 2.5z" fill="#455a64"/></g></g><g fill="#455a64"><g id="XMLID_2941_"><circle cx="18.5" cy="12.5" r=".25"/><path d="m18.5 13.25c-.41 0-.75-.34-.75-.75s.34-.75.75-.75.75.34.75.75-.34.75-.75.75z"/></g><g id="XMLID_2940_"><circle cx="13.5" cy="12.5" r=".25"/><path d="m13.5 13.25c-.41 0-.75-.34-.75-.75s.34-.75.75-.75.75.34.75.75-.34.75-.75.75z"/></g></g></g></g></svg>