<svg id="_x3C_Layer_x3E_" enable-background="new 0 0 32 32" height="32" viewBox="0 0 32 32" width="32" xmlns="http://www.w3.org/2000/svg"><g id="laptop_x2C__AI_x2C__Artificial_Intelligence_x2C__assistant"><g id="XMLID_4143_"><path id="XMLID_2942_" d="m15 14h2c.3 0 .5.2.4.5-.2.6-.8 1-1.4 1s-1.2-.4-1.4-1c-.1-.3.1-.5.4-.5z" fill="#263238"/></g><g id="gaming_technology_x2C__joystick_x2C__Nft_x2C__blockchain_1_"><g id="gaming_technology_x2C__joystick_x2C__gear_x2C__cogwheel_2_"><g id="XMLID_3818_" fill="none" stroke="#263238" stroke-linecap="round" stroke-linejoin="round" stroke-miterlimit="10"><path id="XMLID_4200_" d="m28 15.5h-1.2l-1-1h-2.3"/><path id="XMLID_4199_" d="m29 12.5h-5.5"/><path id="XMLID_4189_" d="m30.4 12.5h.1"/><path id="XMLID_4186_" d="m29.4 15.5h.1"/><path id="XMLID_4185_" d="m29.4 9.5h.1"/><path id="XMLID_4184_" d="m28 9.5h-1.2l-1 1h-2.3"/><path id="XMLID_4174_" d="m4 15.5h1.2l1-1h2.3"/><path id="XMLID_4168_" d="m3 12.5h5.5"/><path id="XMLID_4144_" d="m1.6 12.5h-.1"/><path id="XMLID_3821_" d="m2.6 15.5h-.1"/><path id="XMLID_3820_" d="m2.6 9.5h-.1"/><path id="XMLID_3819_" d="m4 9.5h1.2l1 1h2.3"/></g></g><g id="XMLID_3797_" fill="none" stroke="#263238" stroke-linecap="round" stroke-miterlimit="10"><g stroke-linejoin="round"><path id="XMLID_4202_" d="m4.5 17.5v4"/><path id="XMLID_4142_" d="m27.5 21.5v-4"/><path id="XMLID_4141_" d="m27.5 7.5v-3c0-.6-.4-1-1-1h-21c-.6 0-1 .4-1 1v3"/></g><g id="XMLID_3827_"><path id="XMLID_4140_" d="m6.5 24.5v.1"/><path id="XMLID_4139_" d="m5.5 23.4v.1"/><path id="XMLID_4138_" d="m8.5 24.5v.1"/><path id="XMLID_4137_" d="m7.5 23.4v.1"/><path id="XMLID_4136_" d="m10.5 24.5v.1"/><path id="XMLID_4135_" d="m9.5 23.4v.1"/><path id="XMLID_4134_" d="m12.5 24.5v.1"/><path id="XMLID_4133_" d="m11.5 23.4v.1"/><path id="XMLID_4132_" d="m14.5 24.5v.1"/><path id="XMLID_4108_" d="m13.5 23.4v.1"/><path id="XMLID_4107_" d="m16.5 24.5v.1"/><path id="XMLID_4084_" d="m15.5 23.4v.1"/><path id="XMLID_4059_" d="m18.5 24.5v.1"/><path id="XMLID_4058_" d="m17.5 23.4v.1"/><path id="XMLID_4042_" d="m20.5 24.5v.1"/><path id="XMLID_4041_" d="m19.5 23.4v.1"/><path id="XMLID_4038_" d="m22.5 24.5v.1"/><path id="XMLID_4022_" d="m21.5 23.4v.1"/><path id="XMLID_4021_" d="m24.5 24.5v.1"/><path id="XMLID_3952_" d="m23.5 23.4v.1"/><path id="XMLID_3951_" d="m25.5 23.4v.1"/></g><path id="XMLID_3826_" d="m4.5 21.5h23l3 5" stroke-linejoin="round"/><path id="XMLID_3824_" d="m1.5 26.5 3-5" stroke-linejoin="round"/><path id="XMLID_461_" d="m30.5 26.5c0 1.1-.9 2-2 2h-25c-1.1 0-2-.9-2-2z" stroke-linejoin="round"/></g><g id="chat_bot_x2C__chatbot_x2C__assistant_11_"><path id="XMLID_2943_" d="m16.5 6.5v2h3c1.1 0 2 .9 2 2v5c0 1.1-.9 2-2 2h-7c-1.1 0-2-.9-2-2v-5c0-1.1.9-2 2-2h2" fill="none" stroke="#263238" stroke-linecap="round" stroke-linejoin="round" stroke-miterlimit="10"/></g><g fill="#263238" stroke="#263238" stroke-miterlimit="10"><circle id="XMLID_2941_" cx="18.5" cy="12.5" r=".3"/><circle id="XMLID_2940_" cx="13.5" cy="12.5" r=".3"/></g></g></g></svg>